<svg xmlns="http://www.w3.org/2000/svg" xmlns:xlink="http://www.w3.org/1999/xlink" width="2000" zoomAndPan="magnify" viewBox="0 0 1500 1499.999933" height="2000" preserveAspectRatio="xMidYMid meet" version="1.0"><defs><clipPath id="612c3e9e04"><path d="M 2 244.089844 L 1496 244.089844 L 1496 1247 L 2 1247 Z M 2 244.089844 " clip-rule="nonzero"/></clipPath></defs><g clip-path="url(#612c3e9e04)"><path fill="#f55064" d="M 96.175781 244.089844 L 1403.183594 244.089844 C 1454.476562 244.089844 1496.609375 282.621094 1495.699219 329.53125 L 1495.699219 931.789062 C 1495.699219 978.699219 1453.566406 1017.230469 1402.273438 1017.230469 L 985.859375 1017.230469 L 817.03125 1216.167969 C 782.953125 1256.058594 721.445312 1256.058594 687.375 1216.167969 L 518.542969 1017.230469 L 96.175781 1017.230469 C 44.882812 1017.230469 2.75 978.699219 2.75 931.789062 L 2.75 329.53125 C 2.75 282.621094 44.882812 244.089844 96.175781 244.089844 Z M 96.175781 244.089844 " fill-opacity="1" fill-rule="evenodd"/></g><path fill="#ffffff" d="M 631.882812 556.308594 C 618.585938 515.585938 587.835938 485.664062 552.097656 476.523438 C 537.136719 473.195312 523.007812 470.703125 510.539062 470.703125 C 473.972656 470.703125 445.710938 485.664062 423.273438 517.246094 L 420.777344 521.402344 L 418.285156 517.246094 C 395.84375 485.664062 366.753906 470.703125 331.015625 470.703125 C 318.550781 470.703125 304.421875 472.367188 289.460938 476.523438 C 253.722656 485.664062 222.972656 515.585938 209.671875 556.308594 C 195.542969 600.359375 203.023438 645.238281 231.28125 679.316406 C 291.953125 752.453125 419.117188 848.863281 419.949219 849.695312 L 420.777344 850.527344 L 422.441406 849.695312 C 427.429688 845.539062 552.097656 750.792969 611.105469 679.316406 C 638.535156 645.238281 646.84375 600.359375 631.882812 556.308594 Z M 631.882812 556.308594 " fill-opacity="1" fill-rule="nonzero"/><path fill="#ffffff" d="M 1239.792969 502.847656 C 1251.210938 502.929688 1262.457031 505.011719 1273.535156 509.097656 C 1284.617188 513.179688 1294.613281 519.84375 1303.53125 529.09375 C 1312.53125 538.339844 1319.691406 550.835938 1325.023438 566.585938 C 1330.441406 582.246094 1333.1875 601.742188 1333.273438 625.074219 C 1333.273438 647.484375 1331.023438 667.4375 1326.527344 684.933594 C 1322.03125 702.347656 1315.570312 717.054688 1307.152344 729.050781 C 1298.824219 741.046875 1288.699219 750.171875 1276.785156 756.421875 C 1264.871094 762.667969 1251.457031 765.792969 1236.542969 765.792969 C 1221.296875 765.792969 1207.761719 762.792969 1195.929688 756.796875 C 1184.09375 750.796875 1174.472656 742.507812 1167.058594 731.925781 C 1159.640625 721.261719 1155.015625 709.015625 1153.183594 695.183594 L 1191.304688 695.183594 C 1193.804688 706.179688 1198.886719 715.097656 1206.554688 721.925781 C 1214.300781 728.675781 1224.296875 732.050781 1236.542969 732.050781 C 1255.289062 732.050781 1269.914062 723.886719 1280.40625 707.554688 C 1290.910156 691.140625 1296.199219 668.230469 1296.28125 638.820312 L 1294.28125 638.820312 C 1289.949219 645.984375 1284.535156 652.148438 1278.039062 657.316406 C 1271.617188 662.480469 1264.414062 666.480469 1256.414062 669.3125 C 1248.417969 672.144531 1239.878906 673.5625 1230.792969 673.5625 C 1216.050781 673.5625 1202.636719 669.9375 1190.550781 662.691406 C 1178.472656 655.441406 1168.847656 645.484375 1161.6875 632.820312 C 1154.519531 620.15625 1150.933594 605.703125 1150.933594 589.453125 C 1150.933594 573.289062 1154.601562 558.628906 1161.933594 545.464844 C 1169.351562 532.300781 1179.679688 521.882812 1192.929688 514.21875 C 1206.257812 506.472656 1221.882812 502.679688 1239.792969 502.847656 Z M 1239.914062 535.339844 C 1230.167969 535.339844 1221.378906 537.757812 1213.546875 542.589844 C 1205.800781 547.339844 1199.679688 553.796875 1195.175781 561.960938 C 1190.679688 570.042969 1188.429688 579.039062 1188.429688 588.953125 C 1188.429688 598.867188 1190.597656 607.867188 1194.925781 615.949219 C 1199.339844 623.949219 1205.339844 630.320312 1212.921875 635.070312 C 1220.585938 639.734375 1229.339844 642.070312 1239.167969 642.070312 C 1246.5 642.070312 1253.328125 640.652344 1259.667969 637.820312 C 1265.996094 634.988281 1271.535156 631.070312 1276.289062 626.070312 C 1281.035156 620.988281 1284.746094 615.242188 1287.410156 608.824219 C 1290.078125 602.410156 1291.40625 595.660156 1291.40625 588.578125 C 1291.40625 579.164062 1289.160156 570.417969 1284.660156 562.335938 C 1280.242188 554.253906 1274.160156 547.753906 1266.410156 542.839844 C 1258.664062 537.839844 1249.835938 535.339844 1239.914062 535.339844 Z M 1239.914062 535.339844 " fill-opacity="1" fill-rule="nonzero"/><path fill="#ffffff" d="M 1016.027344 502.847656 C 1027.441406 502.929688 1038.683594 505.011719 1049.765625 509.097656 C 1060.851562 513.179688 1070.847656 519.84375 1079.765625 529.09375 C 1088.757812 538.339844 1095.925781 550.835938 1101.257812 566.585938 C 1106.675781 582.246094 1109.421875 601.742188 1109.503906 625.074219 C 1109.503906 647.484375 1107.257812 667.4375 1102.757812 684.933594 C 1098.257812 702.347656 1091.804688 717.054688 1083.386719 729.050781 C 1075.054688 741.046875 1064.933594 750.171875 1053.019531 756.421875 C 1041.105469 762.667969 1027.691406 765.792969 1012.777344 765.792969 C 997.527344 765.792969 983.988281 762.792969 972.15625 756.796875 C 960.328125 750.796875 950.707031 742.507812 943.292969 731.925781 C 935.875 721.261719 931.25 709.015625 929.417969 695.183594 L 967.53125 695.183594 C 970.035156 706.179688 975.113281 715.097656 982.78125 721.925781 C 990.527344 728.675781 1000.53125 732.050781 1012.777344 732.050781 C 1031.523438 732.050781 1046.144531 723.886719 1056.640625 707.554688 C 1067.140625 691.140625 1072.429688 668.230469 1072.515625 638.820312 L 1070.515625 638.820312 C 1066.183594 645.984375 1060.765625 652.148438 1054.265625 657.316406 C 1047.851562 662.480469 1040.644531 666.480469 1032.648438 669.3125 C 1024.652344 672.144531 1016.109375 673.5625 1007.027344 673.5625 C 992.277344 673.5625 978.863281 669.9375 966.785156 662.691406 C 954.707031 655.441406 945.078125 645.484375 937.917969 632.820312 C 930.753906 620.15625 927.167969 605.703125 927.167969 589.453125 C 927.167969 573.289062 930.835938 558.628906 938.167969 545.464844 C 945.585938 532.300781 955.914062 521.882812 969.160156 514.21875 C 982.492188 506.472656 998.109375 502.679688 1016.027344 502.847656 Z M 1016.148438 535.339844 C 1006.402344 535.339844 997.613281 537.757812 989.78125 542.589844 C 982.03125 547.339844 975.90625 553.796875 971.410156 561.960938 C 966.914062 570.042969 964.65625 579.039062 964.65625 588.953125 C 964.65625 598.867188 966.828125 607.867188 971.160156 615.949219 C 975.574219 623.949219 981.574219 630.320312 989.15625 635.070312 C 996.820312 639.734375 1005.570312 642.070312 1015.402344 642.070312 C 1022.734375 642.070312 1029.5625 640.652344 1035.894531 637.820312 C 1042.230469 634.988281 1047.769531 631.070312 1052.519531 626.070312 C 1057.265625 620.988281 1060.972656 615.242188 1063.640625 608.824219 C 1066.304688 602.410156 1067.640625 595.660156 1067.640625 588.578125 C 1067.640625 579.164062 1065.390625 570.417969 1060.886719 562.335938 C 1056.472656 554.253906 1050.394531 547.753906 1042.644531 542.839844 C 1034.898438 537.839844 1026.0625 535.339844 1016.148438 535.339844 Z M 1016.148438 535.339844 " fill-opacity="1" fill-rule="nonzero"/><path fill="#ffffff" d="M 792.304688 502.847656 C 803.71875 502.929688 814.96875 505.011719 826.050781 509.097656 C 837.128906 513.179688 847.132812 519.84375 856.042969 529.09375 C 865.042969 538.339844 872.210938 550.835938 877.535156 566.585938 C 882.953125 582.246094 885.707031 601.742188 885.789062 625.074219 C 885.789062 647.484375 883.539062 667.4375 879.039062 684.933594 C 874.539062 702.347656 868.082031 717.054688 859.671875 729.050781 C 851.335938 741.046875 841.214844 750.171875 829.296875 756.421875 C 817.382812 762.667969 803.96875 765.792969 789.054688 765.792969 C 773.8125 765.792969 760.269531 762.792969 748.441406 756.796875 C 736.613281 750.796875 726.984375 742.507812 719.570312 731.925781 C 712.160156 721.261719 707.535156 709.015625 705.703125 695.183594 L 743.816406 695.183594 C 746.3125 706.179688 751.398438 715.097656 759.0625 721.925781 C 766.8125 728.675781 776.808594 732.050781 789.054688 732.050781 C 807.800781 732.050781 822.421875 723.886719 832.925781 707.554688 C 843.417969 691.140625 848.714844 668.230469 848.796875 638.820312 L 846.800781 638.820312 C 842.460938 645.984375 837.046875 652.148438 830.546875 657.316406 C 824.136719 662.480469 816.921875 666.480469 808.925781 669.3125 C 800.929688 672.144531 792.386719 673.5625 783.3125 673.5625 C 768.5625 673.5625 755.148438 669.9375 743.070312 662.691406 C 730.984375 655.441406 721.363281 645.484375 714.195312 632.820312 C 707.03125 620.15625 703.445312 605.703125 703.445312 589.453125 C 703.445312 573.289062 707.113281 558.628906 714.445312 545.464844 C 721.863281 532.300781 732.191406 521.882812 745.4375 514.21875 C 758.769531 506.472656 774.394531 502.679688 792.304688 502.847656 Z M 792.433594 535.339844 C 782.6875 535.339844 773.894531 537.757812 766.066406 542.589844 C 758.316406 547.339844 752.191406 553.796875 747.6875 561.960938 C 743.191406 570.042969 740.941406 579.039062 740.941406 588.953125 C 740.941406 598.867188 743.109375 607.867188 747.4375 615.949219 C 751.859375 623.949219 757.855469 630.320312 765.4375 635.070312 C 773.105469 639.734375 781.847656 642.070312 791.679688 642.070312 C 799.011719 642.070312 805.847656 640.652344 812.175781 637.820312 C 818.507812 634.988281 824.050781 631.070312 828.796875 626.070312 C 833.550781 620.988281 837.253906 615.242188 839.917969 608.824219 C 842.589844 602.410156 843.925781 595.660156 843.925781 588.578125 C 843.925781 579.164062 841.667969 570.417969 837.171875 562.335938 C 832.757812 554.253906 826.679688 547.753906 818.929688 542.839844 C 811.175781 537.839844 802.347656 535.339844 792.433594 535.339844 Z M 792.433594 535.339844 " fill-opacity="1" fill-rule="nonzero"/></svg>