<svg xmlns="http://www.w3.org/2000/svg" xmlns:xlink="http://www.w3.org/1999/xlink" width="2000" zoomAndPan="magnify" viewBox="0 0 1500 1499.999933" height="2000" preserveAspectRatio="xMidYMid meet" version="1.0"><defs><clipPath id="4bff97435f"><path d="M 0 0 L 1485 0 L 1485 1485 L 0 1485 Z M 0 0 " clip-rule="nonzero"/></clipPath></defs><g clip-path="url(#4bff97435f)"><path fill="#0094e2" d="M 1485.035156 742.523438 C 1485.035156 754.675781 1484.738281 766.820312 1484.140625 778.957031 C 1483.542969 791.09375 1482.652344 803.210938 1481.460938 815.304688 C 1480.269531 827.398438 1478.78125 839.453125 1477 851.472656 C 1475.214844 863.492188 1473.136719 875.460938 1470.765625 887.382812 C 1468.398438 899.300781 1465.734375 911.152344 1462.78125 922.941406 C 1459.828125 934.726562 1456.589844 946.433594 1453.0625 958.0625 C 1449.535156 969.691406 1445.722656 981.226562 1441.628906 992.667969 C 1437.535156 1004.109375 1433.164062 1015.445312 1428.515625 1026.671875 C 1423.863281 1037.898438 1418.941406 1049.003906 1413.746094 1059.988281 C 1408.550781 1070.972656 1403.089844 1081.824219 1397.359375 1092.542969 C 1391.632812 1103.257812 1385.644531 1113.828125 1379.398438 1124.25 C 1373.148438 1134.675781 1366.648438 1144.9375 1359.898438 1155.039062 C 1353.148438 1165.144531 1346.152344 1175.078125 1338.914062 1184.835938 C 1331.675781 1194.597656 1324.203125 1204.175781 1316.492188 1213.566406 C 1308.785156 1222.960938 1300.847656 1232.160156 1292.6875 1241.164062 C 1284.527344 1250.167969 1276.152344 1258.964844 1267.558594 1267.558594 C 1258.964844 1276.152344 1250.167969 1284.527344 1241.164062 1292.6875 C 1232.160156 1300.847656 1222.960938 1308.785156 1213.566406 1316.492188 C 1204.175781 1324.203125 1194.597656 1331.675781 1184.835938 1338.914062 C 1175.078125 1346.152344 1165.144531 1353.148438 1155.042969 1359.898438 C 1144.9375 1366.648438 1134.675781 1373.148438 1124.25 1379.398438 C 1113.828125 1385.644531 1103.257812 1391.632812 1092.542969 1397.359375 C 1081.824219 1403.089844 1070.972656 1408.550781 1059.988281 1413.746094 C 1049.003906 1418.941406 1037.898438 1423.863281 1026.671875 1428.515625 C 1015.445312 1433.164062 1004.109375 1437.535156 992.667969 1441.628906 C 981.226562 1445.722656 969.691406 1449.535156 958.0625 1453.0625 C 946.433594 1456.589844 934.726562 1459.828125 922.941406 1462.78125 C 911.152344 1465.734375 899.300781 1468.398438 887.382812 1470.765625 C 875.464844 1473.136719 863.492188 1475.214844 851.472656 1477 C 839.453125 1478.78125 827.398438 1480.269531 815.304688 1481.460938 C 803.210938 1482.648438 791.09375 1483.542969 778.957031 1484.140625 C 766.820312 1484.738281 754.675781 1485.035156 742.523438 1485.035156 C 730.371094 1485.035156 718.230469 1484.738281 706.089844 1484.140625 C 693.953125 1483.542969 681.839844 1482.652344 669.746094 1481.460938 C 657.652344 1480.269531 645.597656 1478.78125 633.574219 1477 C 621.554688 1475.214844 609.585938 1473.136719 597.667969 1470.765625 C 585.75 1468.398438 573.898438 1465.734375 562.109375 1462.78125 C 550.320312 1459.828125 538.613281 1456.589844 526.984375 1453.0625 C 515.355469 1449.535156 503.820312 1445.722656 492.378906 1441.628906 C 480.9375 1437.535156 469.605469 1433.164062 458.378906 1428.515625 C 447.152344 1423.863281 436.046875 1418.941406 425.0625 1413.746094 C 414.074219 1408.550781 403.226562 1403.089844 392.507812 1397.359375 C 381.792969 1391.632812 371.222656 1385.644531 360.796875 1379.398438 C 350.375 1373.148438 340.113281 1366.648438 330.007812 1359.898438 C 319.90625 1353.148438 309.972656 1346.152344 300.210938 1338.914062 C 290.453125 1331.675781 280.875 1324.203125 271.480469 1316.492188 C 262.089844 1308.785156 252.890625 1300.847656 243.886719 1292.6875 C 234.882812 1284.527344 226.082031 1276.152344 217.492188 1267.558594 C 208.898438 1258.964844 200.523438 1250.167969 192.359375 1241.164062 C 184.199219 1232.160156 176.265625 1222.960938 168.558594 1213.566406 C 160.847656 1204.175781 153.375 1194.597656 146.136719 1184.835938 C 138.894531 1175.078125 131.902344 1165.144531 125.148438 1155.039062 C 118.398438 1144.9375 111.898438 1134.675781 105.652344 1124.25 C 99.40625 1113.828125 93.417969 1103.257812 87.691406 1092.542969 C 81.960938 1081.824219 76.5 1070.972656 71.304688 1059.988281 C 66.109375 1049.003906 61.183594 1037.898438 56.535156 1026.671875 C 51.886719 1015.445312 47.511719 1004.109375 43.417969 992.667969 C 39.324219 981.226562 35.515625 969.691406 31.988281 958.0625 C 28.460938 946.433594 25.21875 934.726562 22.265625 922.941406 C 19.3125 911.152344 16.652344 899.300781 14.28125 887.382812 C 11.910156 875.460938 9.835938 863.492188 8.050781 851.472656 C 6.269531 839.453125 4.78125 827.398438 3.589844 815.304688 C 2.398438 803.210938 1.503906 791.09375 0.910156 778.957031 C 0.3125 766.820312 0.015625 754.675781 0.015625 742.523438 C 0.015625 730.371094 0.3125 718.230469 0.910156 706.089844 C 1.503906 693.953125 2.398438 681.839844 3.589844 669.746094 C 4.78125 657.652344 6.269531 645.597656 8.050781 633.574219 C 9.835938 621.554688 11.910156 609.585938 14.28125 597.667969 C 16.652344 585.75 19.3125 573.898438 22.265625 562.109375 C 25.21875 550.320312 28.460938 538.613281 31.988281 526.984375 C 35.515625 515.355469 39.324219 503.820312 43.417969 492.378906 C 47.511719 480.9375 51.886719 469.605469 56.535156 458.378906 C 61.183594 447.152344 66.109375 436.046875 71.304688 425.0625 C 76.5 414.074219 81.960938 403.226562 87.691406 392.507812 C 93.417969 381.792969 99.40625 371.222656 105.652344 360.796875 C 111.898438 350.375 118.398438 340.113281 125.148438 330.007812 C 131.902344 319.90625 138.894531 309.972656 146.136719 300.210938 C 153.375 290.453125 160.847656 280.875 168.558594 271.480469 C 176.265625 262.089844 184.199219 252.890625 192.359375 243.886719 C 200.523438 234.882812 208.898438 226.082031 217.492188 217.492188 C 226.082031 208.898438 234.882812 200.523438 243.886719 192.359375 C 252.890625 184.199219 262.089844 176.265625 271.480469 168.558594 C 280.875 160.847656 290.453125 153.375 300.210938 146.136719 C 309.972656 138.894531 319.90625 131.902344 330.007812 125.148438 C 340.113281 118.398438 350.375 111.898438 360.796875 105.652344 C 371.222656 99.40625 381.792969 93.417969 392.507812 87.691406 C 403.226562 81.960938 414.074219 76.5 425.0625 71.304688 C 436.046875 66.109375 447.152344 61.183594 458.378906 56.535156 C 469.605469 51.886719 480.9375 47.511719 492.378906 43.417969 C 503.820312 39.324219 515.355469 35.515625 526.984375 31.988281 C 538.613281 28.460938 550.320312 25.21875 562.109375 22.265625 C 573.898438 19.3125 585.75 16.652344 597.667969 14.28125 C 609.585938 11.910156 621.554688 9.835938 633.574219 8.050781 C 645.597656 6.269531 657.652344 4.78125 669.746094 3.589844 C 681.839844 2.398438 693.953125 1.503906 706.089844 0.910156 C 718.230469 0.3125 730.371094 0.015625 742.523438 0.015625 C 754.675781 0.015625 766.820312 0.3125 778.957031 0.910156 C 791.09375 1.503906 803.210938 2.398438 815.304688 3.589844 C 827.398438 4.78125 839.453125 6.269531 851.472656 8.050781 C 863.492188 9.835938 875.464844 11.910156 887.382812 14.28125 C 899.300781 16.652344 911.152344 19.3125 922.941406 22.265625 C 934.726562 25.21875 946.433594 28.460938 958.0625 31.988281 C 969.691406 35.515625 981.226562 39.324219 992.667969 43.417969 C 1004.109375 47.511719 1015.445312 51.886719 1026.671875 56.535156 C 1037.898438 61.183594 1049.003906 66.109375 1059.988281 71.304688 C 1070.972656 76.5 1081.824219 81.960938 1092.542969 87.691406 C 1103.257812 93.417969 1113.828125 99.40625 1124.25 105.652344 C 1134.675781 111.898438 1144.9375 118.398438 1155.042969 125.148438 C 1165.144531 131.902344 1175.078125 138.894531 1184.835938 146.136719 C 1194.597656 153.375 1204.175781 160.847656 1213.566406 168.558594 C 1222.960938 176.265625 1232.160156 184.199219 1241.164062 192.359375 C 1250.167969 200.523438 1258.964844 208.898438 1267.558594 217.492188 C 1276.152344 226.082031 1284.527344 234.882812 1292.6875 243.886719 C 1300.847656 252.890625 1308.785156 262.089844 1316.492188 271.480469 C 1324.203125 280.875 1331.675781 290.453125 1338.914062 300.210938 C 1346.152344 309.972656 1353.148438 319.90625 1359.898438 330.007812 C 1366.648438 340.113281 1373.148438 350.375 1379.398438 360.796875 C 1385.644531 371.222656 1391.632812 381.792969 1397.359375 392.507812 C 1403.089844 403.226562 1408.550781 414.074219 1413.746094 425.0625 C 1418.941406 436.046875 1423.863281 447.152344 1428.515625 458.378906 C 1433.164062 469.605469 1437.535156 480.9375 1441.628906 492.378906 C 1445.722656 503.820312 1449.535156 515.355469 1453.0625 526.984375 C 1456.589844 538.613281 1459.828125 550.320312 1462.78125 562.109375 C 1465.734375 573.898438 1468.398438 585.75 1470.765625 597.667969 C 1473.136719 609.585938 1475.214844 621.554688 1477 633.574219 C 1478.78125 645.597656 1480.269531 657.652344 1481.460938 669.746094 C 1482.652344 681.839844 1483.542969 693.953125 1484.140625 706.089844 C 1484.738281 718.230469 1485.035156 730.371094 1485.035156 742.523438 Z M 1485.035156 742.523438 " fill-opacity="1" fill-rule="nonzero"/></g><path fill="#fcfcfc" d="M 1126.347656 717.882812 C 1123.261719 716.5625 1123.222656 711.339844 1126.113281 709.527344 C 1142.800781 699.109375 1161.734375 694.871094 1162.253906 667.320312 C 1162.253906 667.320312 1165.734375 626.613281 1161.914062 613.886719 C 1156.351562 595.367188 1126.480469 571.515625 1098.777344 571.203125 L 858.8125 568.554688 C 899.453125 533.246094 920.046875 458.058594 920.980469 376.523438 C 922.6875 227.140625 782.421875 243.34375 749.984375 372.027344 C 734.828125 432.167969 726.128906 519.113281 650.386719 582.203125 C 596.519531 627.070312 541.085938 672.492188 541.085938 741.695312 L 541.085938 996.566406 C 541.085938 1075.472656 635.621094 1129.726562 776.855469 1129.496094 L 1108.109375 1118.316406 C 1135.304688 1117.398438 1157.503906 1103.996094 1158.105469 1072.398438 L 1158.492188 1051.996094 C 1159.027344 1023.652344 1140.609375 1019.941406 1120.929688 1012.242188 C 1118.054688 1011.117188 1118.585938 1006.113281 1121.277344 1004.386719 C 1136.574219 994.59375 1159.675781 989.570312 1160.183594 963.003906 L 1161.050781 917.273438 C 1161.554688 890.671875 1142.246094 885.394531 1123.261719 876.945312 C 1120.234375 875.601562 1120.59375 870.179688 1123.640625 868.679688 C 1140.1875 860.527344 1162.273438 852.589844 1162.75 827.546875 L 1164.0625 758.546875 C 1164.503906 734.652344 1145.589844 726.105469 1126.347656 717.882812 Z M 1126.347656 717.882812 " fill-opacity="1" fill-rule="nonzero"/><path fill="#fcfcfc" d="M 483.46875 651.589844 L 357.726562 651.140625 C 337.460938 651.066406 320.992188 666.4375 320.992188 685.46875 L 320.992188 1053.316406 C 320.992188 1072.347656 337.46875 1087.292969 357.726562 1086.695312 L 483.46875 1082.992188 C 503.285156 1082.40625 519.304688 1066.742188 519.304688 1047.992188 L 519.304688 685.664062 C 519.304688 666.917969 503.285156 651.660156 483.46875 651.589844 Z M 483.46875 651.589844 " fill-opacity="1" fill-rule="nonzero"/></svg>