<svg xmlns="http://www.w3.org/2000/svg" xmlns:xlink="http://www.w3.org/1999/xlink" width="2000" zoomAndPan="magnify" viewBox="0 0 1500 1499.999933" height="2000" preserveAspectRatio="xMidYMid meet" version="1.0"><path fill="#fff80c" d="M 1500 750 C 1500 1164.222656 1164.210938 1500 750 1500 C 335.789062 1500 0 1164.222656 0 750 C 0 335.789062 335.789062 0 750 0 C 1164.210938 0 1500 335.789062 1500 750 " fill-opacity="1" fill-rule="nonzero"/><path fill="#ffda03" d="M 1486.957031 753.257812 C 1486.957031 1158.457031 1158.457031 1486.945312 753.257812 1486.945312 C 348.058594 1486.945312 19.558594 1158.457031 19.558594 753.257812 C 19.558594 348.035156 348.058594 19.558594 753.257812 19.558594 C 1158.46875 19.558594 1486.957031 348.035156 1486.957031 753.257812 " fill-opacity="1" fill-rule="nonzero"/><path fill="#f4b400" d="M 1329.011719 744.714844 C 1329.011719 1068.035156 1066.910156 1330.125 743.589844 1330.125 C 420.28125 1330.125 158.179688 1068.035156 158.179688 744.714844 C 158.179688 421.40625 420.28125 159.292969 743.589844 159.292969 C 1066.910156 159.292969 1329.011719 421.40625 1329.011719 744.714844 " fill-opacity="1" fill-rule="nonzero"/><path fill="#f4b400" d="M 1317.433594 757.101562 C 1317.433594 1066.570312 1066.558594 1317.433594 757.113281 1317.433594 C 447.65625 1317.433594 196.769531 1066.570312 196.769531 757.101562 C 196.769531 447.644531 447.65625 196.769531 757.113281 196.769531 C 1066.558594 196.769531 1317.433594 447.644531 1317.433594 757.101562 " fill-opacity="1" fill-rule="nonzero"/><path fill="#f4b400" d="M 786.691406 376.535156 L 888.984375 571.476562 C 892.757812 578.660156 899.660156 583.675781 907.664062 585.046875 L 1124.660156 622.078125 C 1145.355469 625.617188 1153.582031 650.929688 1138.921875 665.953125 L 985.136719 823.464844 C 979.453125 829.277344 976.816406 837.398438 977.988281 845.425781 L 1009.828125 1063.253906 C 1012.863281 1084.03125 991.335938 1099.675781 972.515625 1090.359375 L 775.183594 992.777344 C 767.90625 989.179688 759.363281 989.179688 752.085938 992.777344 L 554.765625 1090.359375 C 535.945312 1099.675781 514.40625 1084.03125 517.441406 1063.253906 L 549.28125 845.425781 C 550.453125 837.398438 547.816406 829.277344 542.144531 823.464844 L 388.347656 665.953125 C 373.6875 650.929688 381.914062 625.617188 402.609375 622.078125 L 619.605469 585.046875 C 627.609375 583.675781 634.523438 578.660156 638.296875 571.476562 L 740.578125 376.535156 C 750.328125 357.9375 776.941406 357.9375 786.691406 376.535156 " fill-opacity="1" fill-rule="nonzero"/><path fill="#fff80c" d="M 759.421875 349.265625 L 861.703125 544.195312 C 865.476562 551.390625 872.390625 556.40625 880.394531 557.777344 L 1097.390625 594.808594 C 1118.085938 598.335938 1126.3125 623.660156 1111.652344 638.683594 L 957.855469 796.195312 C 952.183594 801.996094 949.546875 810.117188 950.71875 818.15625 L 982.558594 1035.984375 C 985.59375 1056.75 964.054688 1072.394531 945.234375 1063.089844 L 747.914062 965.507812 C 740.636719 961.910156 732.09375 961.910156 724.816406 965.507812 L 527.484375 1063.089844 C 508.675781 1072.394531 487.136719 1056.75 490.171875 1035.984375 L 522 818.15625 C 523.183594 810.117188 520.535156 801.996094 514.875 796.195312 L 361.078125 638.683594 C 346.417969 623.660156 354.644531 598.335938 375.339844 594.808594 L 592.335938 557.777344 C 600.339844 556.40625 607.242188 551.390625 611.015625 544.195312 L 713.296875 349.265625 C 723.058594 330.667969 749.671875 330.667969 759.421875 349.265625 " fill-opacity="1" fill-rule="nonzero"/><path fill="#ffda03" d="M 773.0625 362.894531 L 875.34375 557.835938 C 879.117188 565.019531 886.03125 570.046875 894.023438 571.40625 L 1111.03125 608.449219 C 1131.726562 611.976562 1139.953125 637.289062 1125.28125 652.3125 L 971.496094 809.824219 C 965.824219 815.636719 963.1875 823.757812 964.359375 831.785156 L 996.1875 1049.613281 C 999.222656 1070.390625 977.695312 1086.035156 958.875 1076.730469 L 761.542969 979.148438 C 754.265625 975.539062 745.734375 975.539062 738.457031 979.148438 L 541.125 1076.730469 C 522.304688 1086.035156 500.777344 1070.390625 503.8125 1049.613281 L 535.640625 831.785156 C 536.8125 823.757812 534.175781 815.636719 528.503906 809.824219 L 374.71875 652.3125 C 360.046875 637.289062 368.273438 611.976562 388.96875 608.449219 L 605.976562 571.40625 C 613.980469 570.046875 620.882812 565.019531 624.65625 557.835938 L 726.9375 362.894531 C 736.6875 344.308594 763.3125 344.308594 773.0625 362.894531 " fill-opacity="1" fill-rule="nonzero"/></svg>